<svg aria-hidden="true" style="position:absolute;width:0;height:0;overflow:hidden" xmlns="http://www.w3.org/2000/svg">
  <defs>
    <symbol id="icon-bulb" viewBox="0 0 32 32">
      <path d="M18.692 20.015a5.782 5.782 0 0 0 3.115-2.023c.978-1.233 1.412-2.772 1.221-4.334s-.983-2.953-2.23-3.913c-1.208-.931-2.714-1.345-4.241-1.166s-2.895.932-3.855 2.118a5.778 5.778 0 0 0-1.297 3.547c-.043 2.116-.772 4.171-2.054 5.786l-1.402 1.767a1.816 1.816 0 0 0 .293 2.549l1.322 1.049a1.817 1.817 0 0 0 2.55-.293l1.402-1.767c1.296-1.633 3.081-2.784 5.174-3.321zm-6.538-5.756a5.039 5.039 0 0 1 1.131-3.092c1.722-2.13 4.888-2.502 7.057-.83 1.087.84 1.778 2.05 1.944 3.412s-.212 2.704-1.065 3.778a5.043 5.043 0 0 1-2.715 1.763c-2.205.566-4.101 1.763-5.492 3.466l-2.989-2.372c1.329-1.725 2.084-3.894 2.129-6.125zm-3.46 7.804.188-.237 2.721 2.719-.074.093a1.06 1.06 0 0 1-.127.132l-2.709-2.707zm.656-.827.211-.266 2.993 2.376-.483.609-2.721-2.719zm-.642 2.524a1.066 1.066 0 0 1-.388-1.013l2.292 2.29a1.052 1.052 0 0 1-.582-.228L8.708 23.76z"/>
      <path d="M13.992 12.507c.099-.171.213-.338.339-.494a.374.374 0 1 0-.582-.47 4.612 4.612 0 0 0-.406.59.373.373 0 0 0 .137.51.374.374 0 0 0 .511-.137zM12.185 18.324a.374.374 0 0 0 .583-.163c.459-1.245.705-2.548.732-3.875.004-.219.028-.438.069-.65a.374.374 0 1 0-.734-.144c-.05.255-.078.517-.083.779a11.123 11.123 0 0 1-.686 3.631.374.374 0 0 0 .118.422zM19.52 17.811a.373.373 0 0 0-.506-.152 3.755 3.755 0 0 1-.842.328.373.373 0 0 0-.139.655c.089.07.208.1.326.07a4.533 4.533 0 0 0 1.01-.393.373.373 0 0 0 .152-.506zM19.563 11.437a3.743 3.743 0 0 1 .373 5.518.374.374 0 0 0 .541.517 4.492 4.492 0 0 0-.449-6.621.374.374 0 0 0-.465.585zM21.266 9.292a.374.374 0 0 0 .525-.06l1.302-1.64a.374.374 0 0 0-.585-.465l-1.302 1.64a.374.374 0 0 0 .06.525zM17.843 7.518a.373.373 0 0 0 .315.425.375.375 0 0 0 .425-.315l.307-2.071a.374.374 0 1 0-.74-.11l-.307 2.071zM20.857 22.66l-.769-1.947a.374.374 0 1 0-.695.275l.769 1.947a.374.374 0 0 0 .695-.275zM13.538 6.173l.769 1.947a.374.374 0 0 0 .695-.275l-.769-1.947a.374.374 0 1 0-.695.275zM24.488 19.726l-1.64-1.302a.374.374 0 0 0-.465.585l1.64 1.302a.374.374 0 0 0 .465-.585zM12.073 10.348a.374.374 0 0 0-.06-.525l-1.64-1.302a.374.374 0 0 0-.465.585l1.64 1.302a.374.374 0 0 0 .525-.06zM23.809 15.725c.05.039.11.067.177.077l2.071.307a.374.374 0 1 0 .11-.74l-2.071-.307a.375.375 0 0 0-.287.663zM10.409 13.031l-2.071-.307a.375.375 0 0 0-.287.663c.05.039.11.067.177.077l2.071.307a.375.375 0 0 0 .11-.74zM23.284 12.012a.374.374 0 0 0 .485.21l1.947-.769a.374.374 0 1 0-.275-.695l-1.947.769a.374.374 0 0 0-.21.485z"/>
    </symbol>
  </defs>
</svg>
