<svg width="52" height="52" fill="none" xmlns="http://www.w3.org/2000/svg">
  <g clip-path="url(#a)" fill="#000">
    <path d="M36.215 29.098a12.958 12.958 0 0 0 2.65-7.892 12.98 12.98 0 0 0-3.895-9.31 12.983 12.983 0 0 0-9.368-3.763c-3.42.048-6.64 1.42-9.07 3.862-2.43 2.443-3.785 5.67-3.816 9.09a12.95 12.95 0 0 0 2.666 8.034c2.875 3.775 4.458 8.398 4.458 13.02v5.056a4.072 4.072 0 0 0 4.067 4.067h3.784a4.072 4.072 0 0 0 4.067-4.067v-5.056c0-4.672 1.53-9.182 4.457-13.04Zm-19.499-.994a11.289 11.289 0 0 1-2.323-7.004c.055-6.14 5.094-11.204 11.232-11.291a11.326 11.326 0 0 1 8.168 3.28 11.316 11.316 0 0 1 3.396 8.117c0 2.508-.799 4.887-2.31 6.88-3.084 4.066-4.744 8.81-4.812 13.738h-8.553c-.07-4.88-1.768-9.741-4.798-13.72Zm4.8 18.523v-.679l8.566.981v.266c0 .14-.015.275-.038.408l-8.528-.976Zm0-2.366V43.5h8.566v1.742l-8.566-.981Zm2.391 5.325c-.9 0-1.685-.5-2.093-1.238l7.216.827c-.383.259-.844.41-1.34.41h-3.783Z"/>
    <path d="M17.502 22.466a8.591 8.591 0 0 1-.092-1.339.838.838 0 1 0-1.676-.015c-.005.537.032 1.076.11 1.602a.838.838 0 1 0 1.658-.248ZM22.435 35.198a.84.84 0 0 0 .797-1.1 26.593 26.593 0 0 0-4.115-7.823 8.458 8.458 0 0 1-.784-1.238.838.838 0 1 0-1.49.77c.268.517.584 1.016.94 1.484a24.92 24.92 0 0 1 3.856 7.33.838.838 0 0 0 .796.577ZM34.598 24.076a.838.838 0 0 0-1.102.438 8.385 8.385 0 0 1-1.021 1.748.838.838 0 0 0 1.336 1.013 10.07 10.07 0 0 0 1.225-2.098.838.838 0 0 0-.438-1.101ZM25.79 12.825c4.622 0 8.381 3.76 8.381 8.381 0 .263-.012.527-.036.787a.838.838 0 1 0 1.67.153c.028-.31.042-.626.042-.94 0-5.545-4.511-10.057-10.057-10.057a.838.838 0 0 0 0 1.676ZM25.79 6.685a.838.838 0 0 0 .838-.838V1.154a.838.838 0 0 0-1.676 0v4.693c0 .463.375.838.838.838ZM17.312 8.341a.838.838 0 1 0 1.451-.838L16.418 3.44a.838.838 0 1 0-1.452.838l2.346 4.063ZM43.703 30.725l-4.064-2.345a.838.838 0 1 0-.838 1.451l4.063 2.346a.838.838 0 1 0 .838-1.452ZM7.878 11.979l4.064 2.346a.838.838 0 1 0 .838-1.452l-4.064-2.346a.838.838 0 1 0-.838 1.452ZM45.99 20.514h-4.694a.838.838 0 0 0 0 1.676h4.694a.838.838 0 0 0 0-1.677ZM11.124 21.352a.838.838 0 0 0-.838-.838H5.592a.838.838 0 1 0 0 1.676h4.694a.838.838 0 0 0 .838-.838ZM39.22 14.437a.835.835 0 0 0 .42-.112l4.063-2.346a.838.838 0 0 0-.839-1.452l-4.063 2.346a.838.838 0 0 0 .42 1.564ZM11.943 28.38l-4.064 2.345a.838.838 0 1 0 .838 1.452l4.064-2.346a.838.838 0 0 0-.838-1.451ZM33.125 8.649a.838.838 0 0 0 1.145-.307l2.346-4.064a.838.838 0 0 0-1.452-.838l-2.346 4.064a.838.838 0 0 0 .307 1.145Z"/>
  </g>
  <defs>
    <clipPath id="a">
      <path fill="#fff" transform="translate(.316 .316)" d="M0 0h50.947v50.947H0z"/>
    </clipPath>
  </defs>
</svg>
